<svg width="24" height="24" viewBox="0 0 24 24" fill="none" xmlns="http://www.w3.org/2000/svg">
<path d="M13.7284 21C13.5526 21.3031 13.3003 21.5547 12.9966 21.7295C12.693 21.9044 12.3488 21.9965 11.9984 21.9965C11.648 21.9965 11.3038 21.9044 11.0002 21.7295C10.6966 21.5547 10.4442 21.3031 10.2684 21M17.9988 9C17.9988 7.4087 17.3667 5.88258 16.2414 4.75736C15.1162 3.63214 13.5901 3 11.9988 3C10.4075 3 8.88142 3.63214 7.7562 4.75736C6.63098 5.88258 5.99884 7.4087 5.99884 9C5.99884 13.1262 4.95645 15.5151 4.10057 16.7812C3.8235 17.191 4.15554 18 4.65025 18H19.3474C19.8421 18 20.1742 17.191 19.8971 16.7812C19.0412 15.5151 17.9988 13.1262 17.9988 9Z" stroke="#999CBF" stroke-width="1.5" stroke-linecap="round" stroke-linejoin="round"/>
</svg>
