<svg width="24" height="24" viewBox="0 0 24 24" fill="none" xmlns="http://www.w3.org/2000/svg">
<g id="Frame 2147224979">
<rect width="24" height="24" rx="12" fill="#646486"/>
<path id="Vector" d="M6 15L9.17477 10.8728C9.30334 10.7057 9.45598 10.5731 9.62397 10.4826C9.79196 10.3921 9.97201 10.3456 10.1538 10.3456C10.3357 10.3456 10.5157 10.3921 10.6837 10.4826C10.8517 10.5731 11.0043 10.7057 11.1329 10.8728L14.3077 15M13.3846 13.8L14.2517 12.6728C14.3803 12.5057 14.5329 12.3731 14.7009 12.2826C14.8689 12.1921 15.0489 12.1456 15.2308 12.1456C15.4126 12.1456 15.5927 12.1921 15.7606 12.2826C15.9286 12.3731 16.0813 12.5057 16.2098 12.6728L18 15M6.92308 18H17.0769C17.3217 18 17.5565 17.8736 17.7296 17.6485C17.9027 17.4235 18 17.1183 18 16.8V7.2C18 6.88174 17.9027 6.57652 17.7296 6.35147C17.5565 6.12643 17.3217 6 17.0769 6H6.92308C6.67826 6 6.44347 6.12643 6.27036 6.35147C6.09725 6.57652 6 6.88174 6 7.2V16.8C6 17.1183 6.09725 17.4235 6.27036 17.6485C6.44347 17.8736 6.67826 18 6.92308 18ZM13.3846 9H13.3895V9.0064H13.3846V9ZM13.6154 9C13.6154 9.07956 13.5911 9.15587 13.5478 9.21213C13.5045 9.26839 13.4458 9.3 13.3846 9.3C13.3234 9.3 13.2647 9.26839 13.2214 9.21213C13.1782 9.15587 13.1538 9.07956 13.1538 9C13.1538 8.92044 13.1782 8.84413 13.2214 8.78787C13.2647 8.73161 13.3234 8.7 13.3846 8.7C13.4458 8.7 13.5045 8.73161 13.5478 8.78787C13.5911 8.84413 13.6154 8.92044 13.6154 9Z" stroke="#D1D4E7" stroke-width="1.3" stroke-linecap="round" stroke-linejoin="round"/>
</g>
</svg>
