<svg width="46" height="46" viewBox="0 0 46 46" fill="none" xmlns="http://www.w3.org/2000/svg">
<path d="M23 3.83301C18.4894 3.83301 14.8328 7.48961 14.8328 12.0003C14.8328 16.5109 18.4894 20.1675 23 20.1675C27.5106 20.1675 31.1672 16.5109 31.1672 12.0003C31.1672 7.48961 27.5106 3.83301 23 3.83301ZM22.9999 22.043C18.4088 22.043 14.2921 23.9935 11.332 26.6783C8.40495 29.3331 6.42432 32.884 6.42432 36.2501C6.42432 37.9103 7.42105 39.081 8.6109 39.8397C9.77234 40.5802 11.2908 41.0567 12.8601 41.3805C16.0219 42.0328 19.9202 42.1657 22.9999 42.1657C26.0796 42.1657 29.9778 42.0328 33.1397 41.3805C34.709 41.0567 36.2275 40.5802 37.3889 39.8397C38.5788 39.0811 39.5755 37.9103 39.5755 36.2501C39.5755 32.884 37.5948 29.3331 34.6677 26.6783C31.7076 23.9935 27.5909 22.043 22.9999 22.043Z" fill="white"/>
</svg>
