<svg width="14" height="15" viewBox="0 0 14 15" fill="none" xmlns="http://www.w3.org/2000/svg">
<path fill-rule="evenodd" clip-rule="evenodd" d="M6.99922 2.0502C5.55379 2.0502 4.16756 2.62439 3.14549 3.64646C2.12341 4.66854 1.54922 6.05477 1.54922 7.5002C1.54922 8.2159 1.69019 8.9246 1.96408 9.58582C2.23796 10.247 2.63941 10.8478 3.14549 11.3539C3.65157 11.86 4.25237 12.2615 4.91359 12.5353C5.57482 12.8092 6.28351 12.9502 6.99922 12.9502C7.71492 12.9502 8.42362 12.8092 9.08484 12.5353C9.74607 12.2615 10.3469 11.86 10.853 11.3539C11.359 10.8478 11.7605 10.247 12.0344 9.58582C12.3083 8.9246 12.4492 8.2159 12.4492 7.5002C12.4492 6.05477 11.875 4.66854 10.853 3.64646C9.83088 2.62439 8.44465 2.0502 6.99922 2.0502ZM2.36767 2.86865C3.59603 1.64028 5.26205 0.950195 6.99922 0.950195C8.73639 0.950195 10.4024 1.64028 11.6308 2.86865C12.8591 4.09701 13.5492 5.76303 13.5492 7.5002C13.5492 8.36035 13.3798 9.21209 13.0506 10.0068C12.7215 10.8015 12.239 11.5235 11.6308 12.1317C11.0225 12.74 10.3005 13.2224 9.5058 13.5516C8.71111 13.8808 7.85938 14.0502 6.99922 14.0502C6.13906 14.0502 5.28733 13.8808 4.49264 13.5516C3.69796 13.2224 2.97589 12.74 2.36767 12.1317C1.75945 11.5235 1.27698 10.8015 0.947808 10.0068C0.618639 9.21209 0.449219 8.36035 0.449219 7.5002C0.449219 5.76303 1.13931 4.09701 2.36767 2.86865ZM6.99922 2.9502C7.30298 2.9502 7.54922 3.19644 7.54922 3.5002V7.24798L10.0248 9.37951C10.2549 9.57771 10.2809 9.92498 10.0827 10.1552C9.88448 10.3854 9.5372 10.4113 9.30702 10.2131L6.64035 7.91698C6.519 7.8125 6.44922 7.66032 6.44922 7.5002V3.5002C6.44922 3.19644 6.69546 2.9502 6.99922 2.9502Z" fill="#999CBF"/>
</svg>
