<svg width="30" height="30" viewBox="0 0 30 30" fill="none" xmlns="http://www.w3.org/2000/svg">
<g clip-path="url(#clip0_994_19423)">
<path fill-rule="evenodd" clip-rule="evenodd" d="M11.4878 15.574C11.0887 15.3488 11.0887 14.6516 11.4878 14.4264C12.7149 13.734 13.7332 12.715 14.425 11.4874C14.6503 11.0877 15.3497 11.0877 15.575 11.4874C16.2668 12.715 17.2851 13.734 18.5121 14.4263C18.9112 14.6516 18.9112 15.3488 18.5121 15.574C17.2851 16.2664 16.2667 17.2853 15.575 18.5129C15.3497 18.9127 14.6502 18.9127 14.425 18.5129C13.7332 17.2854 12.7149 16.2664 11.4878 15.574ZM15.575 26.0716C15.3497 25.6718 14.6502 25.6718 14.4249 26.0716C13.1034 28.4167 10.5899 30.0004 7.70663 30.0004C3.45037 30.0004 0 26.5493 0 22.2922C0 19.4095 1.58217 16.8963 3.92535 15.5741C4.32446 15.3489 4.32446 14.6515 3.92535 14.4263C1.58217 13.1041 0 10.591 0 7.70819C0 3.45108 3.45037 0 7.70663 0C10.5899 0 13.1034 1.58372 14.4249 3.92889C14.6502 4.32866 15.3498 4.32867 15.5751 3.92889C16.8966 1.58372 19.4101 0 22.2934 0C26.5496 0 30 3.45108 30 7.70819C30 10.591 28.4178 13.1041 26.0746 14.4264C25.6755 14.6516 25.6755 15.3489 26.0746 15.5741C28.4178 16.8963 29.9999 19.4095 29.9999 22.2922C29.9999 26.5493 26.5495 30.0004 22.2933 30.0004C19.41 30.0004 16.8966 28.4167 15.575 26.0716Z" fill="white"/>
</g>
<defs>
<clipPath id="clip0_994_19423">
<rect width="30" height="30" fill="white"/>
</clipPath>
</defs>
</svg>
