<svg width="30" height="30" viewBox="0 0 30 30" fill="none" xmlns="http://www.w3.org/2000/svg">
<g clip-path="url(#clip0_994_19577)">
<path fill-rule="evenodd" clip-rule="evenodd" d="M29.8898 3.33899C29.8898 1.311 28.2458 -0.333008 26.2178 -0.333008H13.8475C11.8195 -0.333008 10.1755 1.311 10.1755 3.33899V11.4236C10.1755 13.4516 8.53153 15.0956 6.50354 15.0956H3.56164C1.53366 15.0956 -0.110352 16.7396 -0.110352 18.7676V25.995C-0.110352 28.023 1.53365 29.667 3.56164 29.667H10.7891C12.8171 29.667 14.4611 28.023 14.4611 25.995V23.0533C14.4611 21.0253 16.1051 19.3813 18.1331 19.3813H20.0327H26.2178C28.2458 19.3813 29.8898 17.7373 29.8898 15.7093V3.33899Z" fill="white"/>
</g>
<defs>
<clipPath id="clip0_994_19577">
<rect width="30" height="30" fill="white"/>
</clipPath>
</defs>
</svg>
