<svg width="100" height="100" viewBox="0 0 100 100" fill="none" xmlns="http://www.w3.org/2000/svg">
<path d="M46.5549 16.875C47.9982 14.375 51.6067 14.375 53.0501 16.875L88.2324 77.8125C89.6757 80.3125 87.8715 83.4375 84.9848 83.4375H14.6202C11.7334 83.4375 9.92922 80.3125 11.3726 77.8125L46.5549 16.875Z" fill="#CABFFF"/>
<g clip-path="url(#clip0_2884_46154)">
<path d="M50 64.2627C48.6219 64.2627 47.5 65.3846 47.5 66.7627C47.5 68.1408 48.6219 69.2627 50 69.2627C51.3781 69.2627 52.5 68.1408 52.5 66.7627C52.5 65.3846 51.3781 64.2627 50 64.2627Z" fill="#6535FF"/>
<path d="M50 42.5V58.75" stroke="#6535FF" stroke-width="4.375" stroke-miterlimit="10" stroke-linecap="round"/>
</g>
<defs>
<clipPath id="clip0_2884_46154">
<rect x="22.5" y="28.75" width="55" height="55" rx="27.5" fill="white"/>
</clipPath>
</defs>
</svg>
