<svg width="20" height="20" viewBox="0 0 20 20" fill="none" xmlns="http://www.w3.org/2000/svg">
<path d="M18.4348 16.7678C17.9659 17.2366 17.33 17.5 16.667 17.5H4.16699C3.50395 17.5 2.86807 17.2366 2.39923 16.7678C1.93038 16.2989 1.66699 15.663 1.66699 15V5C1.66699 4.33696 1.93038 3.70107 2.39923 3.23223C2.86807 2.76339 3.50395 2.5 4.16699 2.5H7.16349C7.66048 2.50022 8.13706 2.69774 8.48849 3.04917L9.89333 4.81667C10.01 4.93417 10.1692 5 10.335 5H16.667C17.33 5 17.9659 5.26339 18.4348 5.73223C18.9036 6.20107 19.167 6.83696 19.167 7.5V15C19.167 15.663 18.9036 16.2989 18.4348 16.7678Z" fill="white"/>
</svg>
