<svg width="28" height="29" viewBox="0 0 28 29" fill="none" xmlns="http://www.w3.org/2000/svg">
<path d="M21.7778 22H6.22222C4.99492 22 4 21.1046 4 20V11C4 9.89543 4.99492 9 6.22222 9H21.7778C23.0051 9 24 9.89543 24 11V20C24 21.1046 23.0051 22 21.7778 22Z" stroke="#F1F1F4" stroke-width="1.5"/>
<path d="M8.44531 9.44444V5.66667C8.44531 5.29848 8.74379 5 9.11198 5H18.8898C19.258 5 19.5564 5.29848 19.5564 5.66667V9.44444" stroke="#F1F1F4" stroke-width="1.5"/>
<path d="M19.0009 16.1111C18.6941 16.1111 18.4453 15.8623 18.4453 15.5556C18.4453 15.2488 18.6941 15 19.0009 15C19.3076 15 19.5564 15.2488 19.5564 15.5556C19.5564 15.8623 19.3076 16.1111 19.0009 16.1111Z" fill="#F1F1F4" stroke="#F1F1F4" stroke-width="1.5" stroke-linecap="round" stroke-linejoin="round"/>
</svg>
