<svg width="20" height="29" viewBox="0 0 20 29" fill="none" xmlns="http://www.w3.org/2000/svg">
<path fill-rule="evenodd" clip-rule="evenodd" d="M0 9.51921C-1.84402e-07 13.6996 2.6947 17.2506 6.44185 18.53L0.326679 18.53C0.326679 20.6029 1.29518 22.591 3.01912 24.0568C4.34849 25.1871 6.0431 25.9354 7.86708 26.2188H3.63961C4.1626 27.0093 5.03579 27.5799 5.98772 28.0712C6.93965 28.5625 8.23075 28.8385 9.57699 28.8385C10.9232 28.8385 12.2143 28.5625 13.1663 28.0712C14.1182 27.5799 14.9914 26.9473 15.3759 26.2188H11.1714C12.9954 25.9354 14.69 25.1871 16.0194 24.0568C17.7433 22.591 18.7118 20.6029 18.7118 18.53H12.5966C16.3437 17.2506 19.0384 13.6996 19.0384 9.51921C19.0384 4.2619 14.7765 0 9.51921 0C4.26189 0 2.29105e-07 4.26189 0 9.51921Z" fill="white"/>
</svg>
