<svg width="42" height="64" viewBox="0 0 42 64" fill="none" xmlns="http://www.w3.org/2000/svg">
<path d="M13.5395 40.3668C5.62459 37.415 -3.92113e-07 29.9031 0 21.1024C5.06964e-07 9.72402 9.40202 0.5 21 0.5C32.598 0.5 42 9.72402 42 21.1024C42 29.9031 36.3754 37.415 28.4605 40.3668L37.7541 40.3668C37.7541 44.0734 35.9889 47.6282 32.8469 50.2491C29.7049 52.87 25.4434 54.3425 20.9999 54.3425C16.5564 54.3425 12.2949 52.87 9.1529 50.2491C6.01088 47.6282 4.24571 44.0734 4.24571 40.3668H13.5395Z" fill="white" fill-opacity="0.2"/>
<path d="M11.7905 57.453C12.0993 58.9239 12.9468 60.2917 14.2357 61.3617C15.885 62.7308 18.1219 63.5 20.4544 63.5C22.7868 63.5 25.0237 62.7308 26.673 61.3617C27.9619 60.2917 28.8094 58.9239 29.1182 57.453H11.7905Z" fill="white" fill-opacity="0.2"/>
</svg>
