<svg width="72" height="24" viewBox="0 0 72 24" fill="none" xmlns="http://www.w3.org/2000/svg">
<path fill-rule="evenodd" clip-rule="evenodd" d="M51.4175 2.8627L51.4175 21.3108H55.624L55.6315 21.3004V14.0702L55.624 14.0794V2.8627H51.4175ZM57.1715 12.2025V19.1656L60.0409 15.1878L65.1413 21.7595L68.3751 19.2258L62.7226 11.9416L68.3751 5.07964L65.2202 2.44043L57.1715 12.2025Z" fill="white"/>
<path fill-rule="evenodd" clip-rule="evenodd" d="M39.8624 15.5515C38.5809 19.3058 35.0232 22.0058 30.8349 22.0058C25.568 22.0058 21.2983 17.7361 21.2983 12.4692C21.2983 7.20229 25.568 2.93262 30.8349 2.93262C35.0232 2.93262 38.5809 5.63258 39.8624 9.38693V3.26041C41.9391 3.26041 43.9308 4.23068 45.3993 5.95776C46.5302 7.2879 47.2795 8.98304 47.5642 10.8078V6.60145C48.2941 6.98669 48.9278 7.86148 49.42 8.81515C49.9121 9.76882 50.1887 11.0623 50.1887 12.411C50.1887 13.7597 49.9121 15.0531 49.42 16.0068C48.9278 16.9605 48.3562 17.8352 47.5642 18.3592V14.1317C47.2795 15.9565 46.5302 17.6516 45.3993 18.9817C43.9308 20.7088 41.9391 21.6791 39.8624 21.6791L39.8624 15.5515ZM31.048 17.1431C33.617 17.1431 35.6996 15.0606 35.6996 12.4916C35.6996 9.92261 33.617 7.84004 31.048 7.84004C28.4791 7.84004 26.3965 9.92261 26.3965 12.4916C26.3965 15.0606 28.4791 17.1431 31.048 17.1431Z" fill="white"/>
<rect x="9.36865" y="21.7627" width="18.742" height="4.23621" transform="rotate(-90 9.36865 21.7627)" fill="white"/>
<path fill-rule="evenodd" clip-rule="evenodd" d="M13.6046 2.99121H3.46582V7.18415H13.6046V2.99121ZM15.0167 7.18415H21.4168V2.99121H15.0167V7.18415Z" fill="white"/>
</svg>
