<svg width="36" height="36" viewBox="0 0 36 36" fill="none" xmlns="http://www.w3.org/2000/svg">
<path id="Union" fill-rule="evenodd" clip-rule="evenodd" d="M13.4229 18.1686C13.0181 17.9539 13.0181 17.2687 13.4229 17.054C15.0138 16.2103 16.3211 14.903 17.1649 13.3122C17.3797 12.9075 18.0646 12.9075 18.2794 13.3123C19.1232 14.903 20.4305 16.2103 22.0214 17.054C22.4262 17.2687 22.4262 17.9539 22.0214 18.1686C20.4305 19.0124 19.1232 20.3196 18.2794 21.9104C18.0646 22.3152 17.3797 22.3152 17.1649 21.9104C16.3211 20.3196 15.0138 19.0124 13.4229 18.1686ZM18.2794 30.3265C18.0646 29.9217 17.3797 29.9217 17.1649 30.3265C15.6552 33.1727 12.6616 35.1113 9.21519 35.1113C4.24848 35.1113 0.222168 31.0851 0.222168 26.1185C0.222168 22.672 2.16098 19.6783 5.00745 18.1686C5.4123 17.9539 5.4123 17.2687 5.00745 17.054C2.16098 15.5443 0.222168 12.5507 0.222168 9.10421C0.222168 4.13758 4.24848 0.111328 9.21519 0.111328C12.6616 0.111328 15.6552 2.04995 17.1649 4.89617C17.3797 5.30095 18.0646 5.30095 18.2794 4.89617C19.7891 2.04995 22.7827 0.111328 26.2291 0.111328C31.1958 0.111328 35.2221 4.13758 35.2221 9.10421C35.2221 12.5507 33.2833 15.5443 30.4368 17.054C30.032 17.2687 30.032 17.9539 30.4368 18.1686C33.2833 19.6783 35.2221 22.672 35.2221 26.1185C35.2221 31.0851 31.1958 35.1113 26.2291 35.1113C22.7827 35.1113 19.7891 33.1727 18.2794 30.3265Z" fill="url(#paint0_linear_1195_146)"/>
<defs>
<linearGradient id="paint0_linear_1195_146" x1="17.7222" y1="0.111328" x2="17.7222" y2="43.6578" gradientUnits="userSpaceOnUse">
<stop stop-color="#B59BFF"/>
<stop offset="1" stop-color="#E8E1FF"/>
</linearGradient>
</defs>
</svg>
