<svg width="29" height="29" viewBox="0 0 29 29" fill="none" xmlns="http://www.w3.org/2000/svg">
<g id="user 1">
<path id="Vector" d="M22.666 21.5C23.2183 21.5 23.666 21.0523 23.666 20.5V19.1667C23.666 17.929 23.1919 16.742 22.348 15.8668C21.5041 14.9917 20.3595 14.5 19.166 14.5H10.166C8.97254 14.5 7.82795 14.9917 6.98403 15.8668C6.14012 16.742 5.66602 17.929 5.66602 19.1667V20.5" stroke="#F1F1F4" stroke-width="1.5" stroke-linecap="round" stroke-linejoin="round"/>
<path id="Vector_2" d="M14.666 11C16.599 11 18.166 9.433 18.166 7.5C18.166 5.567 16.599 4 14.666 4C12.733 4 11.166 5.567 11.166 7.5C11.166 9.433 12.733 11 14.666 11Z" stroke="#F1F1F4" stroke-width="1.5" stroke-linecap="round" stroke-linejoin="round"/>
</g>
</svg>
