<svg width="56" height="56" viewBox="0 0 56 56" fill="none" xmlns="http://www.w3.org/2000/svg">
<rect width="56" height="56" rx="28" fill="#D1D4E7"/>
<rect x="0.5" y="0.5" width="55" height="55" rx="27.5" stroke="white" stroke-opacity="0.1"/>
<path d="M28.0002 16.3335C25.2546 16.3335 23.0288 18.5593 23.0288 21.3049C23.0288 24.0505 25.2546 26.2762 28.0002 26.2762C30.7458 26.2762 32.9716 24.0505 32.9716 21.3049C32.9716 18.5593 30.7458 16.3335 28.0002 16.3335ZM28.0001 27.4179C25.2056 27.4179 22.6997 28.6051 20.898 30.2393C19.1162 31.8553 17.9106 34.0167 17.9106 36.0656C17.9106 37.0762 18.5174 37.7888 19.2416 38.2506C19.9486 38.7014 20.8728 38.9914 21.8281 39.1885C23.7527 39.5855 26.1255 39.6664 28.0001 39.6664C29.8747 39.6664 32.2476 39.5855 34.1722 39.1885C35.1274 38.9914 36.0517 38.7014 36.7586 38.2506C37.4829 37.7888 38.0896 37.0762 38.0896 36.0656C38.0896 34.0167 36.884 31.8553 35.1023 30.2393C33.3005 28.6051 30.7946 27.4179 28.0001 27.4179Z" fill="white"/>
</svg>
