<svg width="24" height="24" viewBox="0 0 24 24" fill="none" xmlns="http://www.w3.org/2000/svg">
<path fill-rule="evenodd" clip-rule="evenodd" d="M12 22C17.5228 22 22 17.5228 22 12C22 6.47715 17.5228 2 12 2C6.47715 2 2 6.47715 2 12C2 17.5228 6.47715 22 12 22ZM6.36312 15.75H8.30756C10.285 15.75 10.7332 15.7091 11.1748 15.4775C11.5241 15.2936 11.8998 14.8781 12.091 14.4557C12.236 14.1356 12.2624 13.9925 12.2624 13.468C12.2624 12.9707 12.236 12.8004 12.1174 12.5756C11.9592 12.2759 11.5966 11.908 11.3791 11.8331C11.2407 11.7922 11.188 11.6628 11.3 11.6628C11.4384 11.6628 11.7944 11.2745 11.9196 10.9816C12.1042 10.5593 12.1042 9.83038 11.9196 9.40804C11.7417 8.99251 11.3659 8.63147 10.9177 8.44755C10.5684 8.3045 10.4432 8.29087 8.45916 8.27044L6.36312 8.25V15.75ZM9.92903 9.61921C10.1202 9.66008 10.3443 9.75545 10.4234 9.83038C10.6277 10.0279 10.6804 10.423 10.5552 10.7364C10.397 11.1315 10.14 11.2064 8.99965 11.2132L8.04391 11.22L8.00436 9.55109H8.78873C9.22376 9.55109 9.73129 9.58515 9.92903 9.61921ZM10.3179 12.6029C10.898 12.923 10.9243 13.8563 10.3641 14.2786C10.1927 14.408 10.0675 14.4217 9.09193 14.4421L8.01095 14.4693V12.4802H9.05238C9.92903 12.4802 10.1268 12.5007 10.3179 12.6029ZM13.9432 9.34675H16.9093V8.59743H13.9432V9.34675ZM13.5279 10.8386C13.7981 10.532 14.2068 10.2596 14.6221 10.1233C14.8066 10.062 15.123 10.0348 15.5712 10.0484C16.171 10.0688 16.2897 10.0961 16.672 10.2936C17.5486 10.7364 18.0232 11.6696 18.0298 12.9707V13.2296H16.1183C15.0703 13.2296 14.2068 13.2568 14.2068 13.2841C14.2068 13.3181 14.2529 13.4953 14.3057 13.686C14.4639 14.2378 14.9582 14.592 15.558 14.592C15.8349 14.5852 16.2633 14.374 16.4281 14.156C16.5665 13.9789 16.5797 13.9721 17.2652 13.9925L17.9639 14.013L17.8057 14.3536C17.4893 15.0688 16.784 15.5661 15.9535 15.6751C14.7077 15.8318 13.6004 15.3141 13.1456 14.3468C12.9545 13.9448 12.9281 13.8222 12.9017 13.1478C12.8556 12.0239 13.0204 11.4176 13.5279 10.8386ZM16.5599 12.092C16.5138 11.8059 16.3622 11.5675 16.0985 11.3631C15.8546 11.1724 15.1823 11.1383 14.8725 11.295C14.6221 11.4312 14.3584 11.8059 14.2991 12.126L14.2595 12.344H16.5995L16.5599 12.092Z" fill="white"/>
</svg>
