<svg width="24" height="24" viewBox="0 0 24 24" fill="none" xmlns="http://www.w3.org/2000/svg">
<path d="M11.3951 2.01085C9.2111 2.15476 7.24406 2.94106 5.54401 4.3489C5.27493 4.57206 4.56988 5.27702 4.34668 5.54608C3.51648 6.54929 2.91573 7.61716 2.51731 8.79765C2.15645 9.87178 2 10.8437 2 12.0013C2 13.1588 2.15645 14.1307 2.51731 15.2049C2.91573 16.3854 3.51648 17.4532 4.34668 18.4564C4.56988 18.7255 5.27493 19.4304 5.54401 19.6536C6.54735 20.4837 7.61535 21.0844 8.796 21.4828C9.87025 21.8436 10.8423 22 12 22C13.1577 22 14.1297 21.8436 15.204 21.4828C16.3846 21.0844 17.4527 20.4837 18.456 19.6536C18.7251 19.4325 19.4301 18.7255 19.6533 18.4564C20.4835 17.4574 21.0843 16.3874 21.4827 15.2049C21.8436 14.1307 22 13.1588 22 12.0013C22 10.8437 21.8436 9.87178 21.4827 8.79765C21.0843 7.61716 20.4835 6.54929 19.6533 5.54608C19.4301 5.27702 18.7251 4.57206 18.456 4.3489C16.8248 2.99738 14.9662 2.22568 12.8657 2.03171C12.5361 2.00042 11.7247 1.98999 11.3951 2.01085ZM15.6462 5.72753C15.8173 5.91107 15.7359 6.35115 15.4126 6.99771C15.0517 7.71518 14.5511 8.30126 13.9524 8.7038C13.8064 8.80391 13.5353 8.94991 13.4101 8.99788C13.3663 9.01456 13.3559 9.02708 13.3663 9.05627C13.4539 9.26067 13.4685 9.48592 13.4059 9.64652C13.3475 9.79461 13.2766 9.88429 12.8865 10.291C11.8018 11.4214 11.5369 11.7447 10.8256 12.8084C10.4105 13.4258 10.2833 13.6364 10.2061 13.8367L10.1602 13.9514L10.4731 13.6385C11.7455 12.3579 12.972 11.7113 13.7981 11.8865C13.9921 11.9262 14.1902 12.0263 14.2799 12.1264C14.5782 12.4538 14.6137 13.0045 14.3717 13.5613C14.1652 14.039 13.6959 14.6355 13.262 14.9733C12.3254 15.7033 10.884 16.3332 9.69086 16.5376C9.41969 16.5835 8.95244 16.6315 8.76679 16.6315C8.5874 16.6315 8.51648 16.6648 8.42261 16.7858C8.36629 16.8609 8.28703 17.0778 8.28703 17.1591C8.28703 17.253 8.24114 17.3677 8.1723 17.4428C8.09512 17.5262 8.08052 17.5346 7.57781 17.7661C7.15645 17.96 7.05006 17.9726 7.12933 17.8203C7.1481 17.7848 7.33167 17.4678 7.54026 17.1153C7.74677 16.7629 7.9199 16.4688 7.92616 16.4604C7.93033 16.4521 7.88444 16.4208 7.82395 16.3895C7.68002 16.3186 7.45265 16.1559 7.45265 16.1267C7.45265 16.1142 7.48185 16.0579 7.51523 16.0037L7.57989 15.9056L7.71965 15.9912C7.86775 16.0808 8.07635 16.181 8.08886 16.1705C8.09512 16.1643 10.6608 11.6342 11.5265 10.1033C12.1398 9.01873 12.8907 7.91124 13.5353 7.14162C14.3091 6.21558 15.0163 5.6879 15.4856 5.68373C15.5795 5.68165 15.6087 5.68999 15.6462 5.72753Z" fill="white"/>
<path d="M14.9433 6.39287C14.6512 6.68903 13.3621 8.23869 13.1118 8.59117C12.922 8.85814 12.5987 9.37122 12.2691 9.92601C11.8081 10.6998 11.8018 10.6852 12.365 10.1137C12.8594 9.61316 12.9595 9.48593 12.9595 9.35662C12.9595 9.3295 12.9408 9.23148 12.9157 9.13762C12.8761 8.98119 12.8761 8.96868 12.9074 8.94991C13.0012 8.89777 13.4184 8.57032 13.6166 8.39303C14.1131 7.95087 14.5594 7.38774 14.8536 6.82877C14.9704 6.60769 15.0934 6.31361 15.0809 6.28024C15.0768 6.26773 15.0142 6.31778 14.9433 6.39287Z" fill="white"/>
<path d="M12.9804 12.408C12.0834 12.5915 10.7839 13.6802 9.41553 15.3905C9.07552 15.816 8.7376 16.2748 8.7522 16.2894C8.7814 16.3207 9.56154 16.1935 9.94536 16.0975C11.4806 15.7075 12.8281 14.7085 13.4247 13.5134C13.5707 13.2235 13.6166 13.0504 13.6166 12.8042C13.6166 12.6207 13.6104 12.5852 13.5665 12.5143C13.5373 12.4705 13.4852 12.4226 13.4477 12.4059C13.3621 12.3704 13.1619 12.3704 12.9804 12.408Z" fill="white"/>
</svg>
