<svg width="24" height="24" viewBox="0 0 24 24" fill="none" xmlns="http://www.w3.org/2000/svg">
<path d="M11.1951 2.02215C10.3663 2.07216 9.42981 2.2538 8.64979 2.51705C7.69786 2.83558 6.69461 3.35944 5.92999 3.93859C5.30392 4.41243 4.60345 5.09688 4.13903 5.69182C2.48662 7.80306 1.73483 10.6356 2.08378 13.4471C2.31728 15.3583 3.0665 17.172 4.2391 18.6831C4.57266 19.1122 5.39116 19.9546 5.76578 20.2599C6.66896 20.9865 7.51569 21.4814 8.51893 21.8657C8.77808 21.9658 8.89868 22 9.00131 22C9.24507 21.9974 9.44007 21.8605 9.51192 21.6393C9.53501 21.563 9.54014 21.2418 9.52731 20.2547C9.51962 19.5465 9.50935 18.9621 9.50422 18.9595C9.49909 18.9542 9.38619 18.9674 9.25277 18.9911C8.94487 19.0411 8.13406 19.049 7.85438 19.0016C7.23857 18.9042 6.79468 18.6936 6.47908 18.3514C6.30717 18.1645 6.24046 18.0487 6.08394 17.6748C5.8094 17.0115 5.41426 16.4507 5.08326 16.2586C4.80615 16.098 4.55726 15.8084 4.59832 15.6979C4.64963 15.561 5.04734 15.5241 5.3655 15.6294C5.88894 15.8005 6.30974 16.1401 6.59711 16.6192C6.94863 17.2063 7.29246 17.5116 7.7774 17.6748C8.05451 17.767 8.48301 17.788 8.8217 17.7222C9.10395 17.6696 9.50935 17.5274 9.53501 17.4721C9.54527 17.4511 9.57863 17.3195 9.61199 17.1826C9.70179 16.7956 9.87627 16.4402 10.0944 16.2033L10.1842 16.1059L10.0969 16.0927C10.0482 16.0848 9.81982 16.0532 9.58633 16.0216C8.57538 15.89 7.85181 15.6821 7.33351 15.3714C6.38415 14.8028 5.88124 13.9078 5.70676 12.4704C5.65545 12.0466 5.66314 11.041 5.71959 10.7514C5.83249 10.1697 6.00697 9.8406 6.55349 9.15615C6.60738 9.08508 6.60994 9.07718 6.57145 8.96925C6.39698 8.46381 6.36619 7.67407 6.49704 7.03701C6.55349 6.75797 6.68179 6.34467 6.72797 6.29992C6.78442 6.23937 7.11028 6.24464 7.372 6.31045C7.85438 6.42891 8.58051 6.78693 9.27843 7.25024L9.49396 7.39503L9.89423 7.30289C11.3439 6.96067 12.8065 6.96857 14.287 7.32658L14.5615 7.39239L14.9413 7.15284C15.4339 6.83957 16.0908 6.50525 16.4628 6.37889C16.6886 6.29992 16.8118 6.27359 16.9939 6.26306C17.348 6.24464 17.3403 6.23937 17.4353 6.54211C17.5738 6.98436 17.62 7.25814 17.6354 7.73725C17.6508 8.22689 17.6251 8.47961 17.5251 8.85605L17.4584 9.10087L17.6097 9.27725C17.8689 9.57998 18.0767 9.88798 18.2076 10.1644C18.4436 10.6619 18.5052 11.0463 18.4821 11.8229C18.4385 13.2023 18.1229 14.1315 17.4661 14.8212C16.8297 15.4925 15.9445 15.84 14.3588 16.0374C14.1818 16.0585 14.0022 16.0822 13.9585 16.0901L13.879 16.1033L13.9662 16.2033C14.1843 16.4428 14.346 16.764 14.4537 17.1694L14.523 17.4327L14.5384 19.5386C14.5512 21.8342 14.5435 21.7183 14.6975 21.8578C14.8027 21.9579 14.8797 21.9842 15.0644 21.9842C15.2209 21.9842 15.2928 21.9631 15.6289 21.8315C17.0735 21.2576 18.2281 20.4547 19.3032 19.2754C21.497 16.8719 22.4515 13.3339 21.7972 10.0354C21.0121 6.08932 17.9561 3.02775 13.9868 2.21695C13.0451 2.02478 12.1547 1.9616 11.1951 2.02215Z" fill="white"/>
<path d="M5.49891 15.9111C5.46299 15.9453 5.48352 16.0217 5.5374 16.0611C5.66056 16.1506 5.79912 16.0875 5.73754 15.9716C5.70162 15.9006 5.5451 15.8611 5.49891 15.9111Z" fill="white"/>
<path d="M5.92228 16.2665C5.90432 16.2849 5.89149 16.3218 5.89149 16.3507C5.89406 16.5034 6.13525 16.614 6.184 16.485C6.23275 16.3507 6.01465 16.1717 5.92228 16.2665Z" fill="white"/>
<path d="M6.32769 16.8088C6.25072 16.8719 6.27638 16.9983 6.38414 17.0904C6.47651 17.1694 6.50987 17.172 6.56888 17.1062C6.63046 17.0351 6.60224 16.9141 6.50217 16.8272C6.41237 16.7482 6.4021 16.7482 6.32769 16.8088Z" fill="white"/>
<path d="M6.79468 17.3984C6.74337 17.4511 6.75876 17.5669 6.83317 17.6406C6.96403 17.7749 7.10258 17.7591 7.11798 17.6064C7.13338 17.4484 6.89475 17.2958 6.79468 17.3984Z" fill="white"/>
<path d="M7.48488 17.8591C7.43613 17.8986 7.42587 17.9249 7.44126 17.9802C7.47462 18.1171 7.73633 18.1829 7.82614 18.0803C7.957 17.9302 7.6414 17.7275 7.48488 17.8591Z" fill="white"/>
<path d="M9.15013 17.8749C9.11677 17.8934 9.07059 17.9381 9.05006 17.9776C9.01414 18.0408 9.01414 18.0513 9.05776 18.1013C9.1296 18.1829 9.31178 18.1777 9.39389 18.0908C9.49139 17.9934 9.47343 17.9197 9.3477 17.8697C9.25533 17.8328 9.22967 17.8328 9.15013 17.8749Z" fill="white"/>
<path d="M8.3932 17.9644C8.31879 17.9828 8.25208 18.0513 8.25208 18.1066C8.25208 18.1329 8.28287 18.1776 8.32392 18.2092C8.4907 18.3461 8.7986 18.1618 8.64209 18.0171C8.59077 17.967 8.47018 17.9434 8.3932 17.9644Z" fill="white"/>
</svg>
