<svg width="24" height="24" viewBox="0 0 24 24" fill="none" xmlns="http://www.w3.org/2000/svg">
<path d="M5.80001 2.02931C4.72822 2.10939 3.86894 2.48823 3.17906 3.18431C2.63084 3.73562 2.27974 4.4009 2.12267 5.19246C1.99948 5.79922 1.99024 6.30434 2.00564 12.3596C2.01488 16.7178 2.02719 18.2178 2.05491 18.4272C2.12883 18.9662 2.26742 19.4159 2.49225 19.8594C2.93883 20.731 3.72727 21.4148 4.6389 21.7197C5.50742 22.0061 5.32879 22 12.0213 22C16.5333 22 17.8453 21.9907 18.1933 21.9599C19.61 21.8306 20.6264 21.2485 21.3378 20.1643C21.6797 19.6469 21.8922 18.9878 21.96 18.2332C21.9908 17.9098 22 16.4622 22 11.9592C22 5.6021 22 5.62674 21.8306 4.96762C21.4949 3.66786 20.5679 2.66379 19.3144 2.24799C18.951 2.12479 18.6214 2.06627 18.104 2.02623C17.5989 1.98927 6.30202 1.99235 5.80001 2.02931ZM7.74031 6.04562C8.01134 6.11646 8.17149 6.2027 8.37476 6.39058C8.84905 6.83102 8.96609 7.48706 8.67966 8.0815C8.57803 8.28786 8.31008 8.56198 8.09757 8.67594C7.36149 9.06709 6.50221 8.78989 6.13263 8.04146C6.02792 7.82894 6.0156 7.77966 6.00636 7.50246C5.99404 7.2499 6.00328 7.16366 6.06179 6.98194C6.21271 6.51994 6.59461 6.16266 7.0689 6.0487C7.30913 5.99018 7.52164 5.99018 7.74031 6.04562ZM15.2767 9.91101C16.0313 9.98185 16.6595 10.2775 17.1831 10.8042C17.3864 11.0075 17.4418 11.0907 17.6205 11.451C17.7344 11.6789 17.8638 11.99 17.91 12.144L17.9962 12.4212L18.0147 18.073H15.5785V15.7476C15.5785 14.1706 15.5662 13.3729 15.5446 13.262C15.3999 12.569 14.864 12.1594 14.1002 12.1594C13.4195 12.1594 12.936 12.4274 12.6711 12.954C12.4771 13.339 12.4864 13.2066 12.4679 15.7322L12.4525 18.0576L11.2452 18.0668L10.0348 18.073V10.0342H12.3139V11.1769L12.5603 10.9182C13.0962 10.3484 13.86 9.97877 14.6238 9.91409C14.7839 9.89869 14.9225 9.88637 14.9318 9.88329C14.941 9.88329 15.095 9.89561 15.2767 9.91101ZM8.64886 18.073L7.41077 18.0668L6.16959 18.0576L6.16035 14.0844C6.15727 11.8976 6.16035 10.0927 6.16959 10.0712C6.17883 10.0435 6.45909 10.0342 7.41693 10.0342H8.64886V18.073Z" fill="white"/>
</svg>
