<svg width="24" height="24" viewBox="0 0 24 24" fill="none" xmlns="http://www.w3.org/2000/svg">
<path d="M5.76745 9.89258C5.52775 9.89258 5.31468 9.98703 5.15488 10.1624C4.98176 10.3379 4.90186 10.5537 4.90186 10.8101C4.90186 11.0665 4.98176 11.2689 5.15488 11.4578C5.328 11.6332 5.52775 11.7277 5.76745 11.7277C6.00716 11.7277 6.22023 11.6332 6.39335 11.4578C6.56647 11.2824 6.65969 11.0665 6.65969 10.8101C6.65969 10.5537 6.56647 10.3379 6.39335 10.1624C6.22023 9.97354 6.02047 9.89258 5.76745 9.89258Z" fill="white"/>
<path d="M13.2386 9.87891C12.9989 9.87891 12.7859 9.97336 12.6261 10.1488C12.4529 10.3242 12.373 10.5401 12.373 10.7964C12.373 11.0528 12.4529 11.2552 12.6261 11.4441C12.7992 11.6195 12.9989 11.714 13.2386 11.714C13.4783 11.714 13.6914 11.6195 13.8645 11.4441C14.0377 11.2687 14.1309 11.0528 14.1309 10.7964C14.1309 10.5401 14.0377 10.3377 13.8645 10.1488C13.7047 9.95987 13.4917 9.87891 13.2386 9.87891Z" fill="white"/>
<path d="M18.2323 9.89258C17.9926 9.89258 17.7795 9.98703 17.6197 10.1624C17.4466 10.3379 17.3667 10.5537 17.3667 10.8101C17.3667 11.0665 17.4466 11.2689 17.6197 11.4578C17.7928 11.6332 17.9926 11.7277 18.2323 11.7277C18.472 11.7277 18.6851 11.6332 18.8582 11.4578C19.0313 11.2824 19.1245 11.0665 19.1245 10.8101C19.1245 10.5537 19.0313 10.3379 18.8582 10.1624C18.6851 9.97354 18.472 9.89258 18.2323 9.89258Z" fill="white"/>
<path d="M20.4431 3.22754H3.55729C2.26555 3.22754 1.2002 4.307 1.2002 5.61584V15.2905C1.2002 16.5994 2.26555 17.6788 3.55729 17.6788H10.1891C10.1891 17.6788 11.4675 21.2275 11.9336 21.2275C12.3997 21.2275 13.7847 17.6788 13.7847 17.6788H20.4431C21.7348 17.6788 22.8002 16.5994 22.8002 15.2905V5.61584C22.8002 4.307 21.7348 3.22754 20.4431 3.22754ZM7.47245 12.1601C7.13953 12.5379 6.62017 12.6998 6.06086 12.6998C5.55482 12.6998 5.18195 12.5514 4.91561 12.3355H4.90229V12.6054H3.63719V7.00565H4.90229V9.15108H4.92893C5.27516 8.85423 5.72794 8.75977 6.26061 8.73279C6.71339 8.71929 7.1928 9.00265 7.48577 9.33998C7.76542 9.67731 7.97849 10.2036 7.97849 10.7838C7.97849 11.4179 7.81869 11.7823 7.47245 12.1601ZM10.2024 12.6593H8.91068C8.91068 12.6593 8.91068 9.71779 8.91068 9.19156C8.91068 8.39545 8.28478 8.28751 8.28478 8.28751V6.8977C8.28478 6.8977 10.0959 7.00565 10.2024 9.23204C10.2024 9.86622 10.2024 12.6593 10.2024 12.6593ZM15.2762 11.5934C15.1696 11.8497 15.0098 12.0656 14.7967 12.268C14.597 12.4569 14.3573 12.6054 14.0909 12.7133C13.8246 12.8212 13.545 12.8752 13.252 12.8752C12.959 12.8752 12.6794 12.8212 12.4263 12.7133C12.16 12.6054 11.9203 12.4569 11.7205 12.268C11.5075 12.0656 11.3477 11.8362 11.2411 11.5934C11.1346 11.3505 11.0813 11.0806 11.0813 10.7973C11.0813 10.5139 11.1346 10.2575 11.2411 10.0012C11.3477 9.75827 11.5075 9.52889 11.7205 9.32649C11.9336 9.13758 12.16 8.98916 12.4263 8.88121C12.6927 8.77327 12.9723 8.71929 13.252 8.71929C13.545 8.71929 13.8246 8.77327 14.0909 8.88121C14.3573 8.98916 14.597 9.13758 14.7967 9.32649C15.0098 9.52889 15.1563 9.74478 15.2762 10.0012C15.3827 10.2575 15.436 10.5139 15.436 10.7973C15.436 11.0806 15.3827 11.337 15.2762 11.5934ZM20.3632 12.1466C20.3632 13.1316 20.1768 13.7253 19.7506 14.1436C19.2313 14.6428 18.4988 14.6698 17.8863 14.5889V13.5769C18.4056 13.6308 19.1114 13.28 19.1114 12.6054V12.349H19.0981C18.8051 12.7538 18.3923 12.9022 17.8197 12.9022C17.3003 12.9022 16.8475 12.7133 16.5413 12.349C16.235 11.9847 16.0885 11.4989 16.0885 10.8917C16.0885 10.2036 16.2616 9.66382 16.5945 9.25902C16.9408 8.85423 17.4202 8.66532 17.9795 8.66532C18.4722 8.66532 18.7918 8.78676 19.0981 9.07012H19.1114V8.75977H20.3765V12.1466H20.3632Z" fill="white"/>
</svg>
