<svg width="24" height="24" viewBox="0 0 24 24" fill="none" xmlns="http://www.w3.org/2000/svg">
<path d="M11.1155 2.04028C9.80974 2.16852 8.6832 2.49554 7.53106 3.06623C6.1997 3.72669 5.11797 4.59234 4.22187 5.71448C1.25831 9.42073 1.25831 14.589 4.22827 18.3016C7.27503 22.1105 12.8053 23.1236 17.0618 20.6549C19.5645 19.1994 21.3375 16.6729 21.8752 13.8003C22.0416 12.9026 22.0416 11.1071 21.8752 10.2094C21.1647 6.40699 18.31 3.30348 14.6359 2.34806C13.471 2.04669 12.1588 1.93127 11.1155 2.04028ZM8.44637 7.05463C9.00324 7.33035 9.41929 7.99081 9.41929 8.60638C9.41929 9.31173 8.86242 10.0684 8.20315 10.2671C7.77429 10.3954 7.54387 10.3954 7.14062 10.2736C6.73097 10.1517 6.35972 9.83753 6.1229 9.4015C5.96288 9.10654 5.93087 8.9847 5.93087 8.60638C5.93727 8.22165 5.96288 8.09982 6.1293 7.80486C6.61575 6.95203 7.60147 6.63142 8.44637 7.05463ZM12.7989 7.06104C13.8806 7.61249 14.0919 8.96547 13.2277 9.83753C12.5109 10.5493 11.5059 10.5493 10.7891 9.8247C10.5266 9.5618 10.4306 9.40791 10.341 9.11936C10.1682 8.51661 10.3154 7.87539 10.7186 7.43295C10.8979 7.24058 11.3523 6.97127 11.6148 6.90073C11.9476 6.81738 12.4533 6.8815 12.7989 7.06104ZM17.0938 7.03539C17.6763 7.33035 18.0411 7.84974 18.1051 8.47814C18.2011 9.43356 17.3434 10.3697 16.3641 10.3697C15.468 10.3697 14.6039 9.52333 14.6039 8.63844C14.6039 8.27936 14.7703 7.79844 14.988 7.52913C15.2056 7.26623 15.6536 6.98409 15.9673 6.90073C16.2617 6.82379 16.8186 6.88791 17.0938 7.03539ZM12.7797 11.3829C13.1573 11.5752 13.5414 12.0241 13.6758 12.4216C13.983 13.3386 13.4198 14.3581 12.4533 14.6403C11.1795 15.0122 9.96976 13.7554 10.341 12.4537C10.4754 11.9984 10.9619 11.4726 11.4035 11.3123C11.7876 11.1713 12.4341 11.2033 12.7797 11.3829ZM12.6005 15.647C12.9845 15.7881 13.3494 16.1087 13.5478 16.4678C13.7142 16.7691 13.7398 16.8781 13.7398 17.2949C13.7398 17.8464 13.6054 18.167 13.2213 18.5389C12.9077 18.8467 12.5941 18.9813 12.1204 19.0134C11.602 19.0519 11.2179 18.9044 10.8147 18.5261C10.4754 18.2119 10.2514 17.7181 10.2514 17.2949C10.2514 16.6665 10.725 15.974 11.3395 15.6983C11.666 15.5508 12.2676 15.5252 12.6005 15.647Z" fill="white"/>
</svg>
