<svg width="24" height="24" viewBox="0 0 24 24" fill="none" xmlns="http://www.w3.org/2000/svg">
<path d="M11.0441 2.05138C7.5805 2.41344 4.56747 4.48524 3.02061 7.57618C2.34133 8.91715 2.06558 10.0704 2.01178 11.6997C1.98488 12.692 1.99833 12.9937 2.11266 13.6776C2.82557 17.8145 5.87222 20.9524 10.0622 21.8642C10.8827 22.0453 13.1425 22.0453 13.963 21.8642C17.5948 21.0798 20.433 18.5654 21.5561 15.146C21.9327 13.986 22 13.5301 22 12.0349C22 10.8414 21.9798 10.5665 21.8453 9.96311C21.5359 8.58861 20.9575 7.28787 20.1707 6.18157C19.6528 5.46415 18.5767 4.39137 17.8436 3.8751C15.8327 2.46037 13.3913 1.8033 11.0441 2.05138ZM10.8895 7.47561C10.9971 7.603 11.1047 7.8779 11.1988 8.26008C11.3064 8.7093 12.0462 12.759 12.3287 14.4352C12.4094 14.9113 12.5776 14.7839 13.3039 13.6776C13.9294 12.7322 14.6557 11.2974 14.8037 10.7275C14.9315 10.2246 14.9382 9.47365 14.8104 9.22557C14.7163 9.04454 14.3531 8.68919 13.8958 8.32712L13.6604 8.13939L13.9966 7.83767C14.4271 7.45549 14.9046 7.27446 15.5099 7.27446C16.0412 7.27446 16.2766 7.34822 16.5456 7.59629C16.9693 7.99859 17.0769 8.53497 16.8886 9.35297C16.5523 10.7677 15.6175 12.3836 13.5259 15.146C12.2884 16.7887 12.4094 16.6411 12.1942 16.7216C12.0126 16.7887 10.4523 16.9429 10.4052 16.8959C10.385 16.8691 8.98614 9.04454 8.98614 8.93056C8.98614 8.90374 8.54225 8.88363 8.00421 8.88363H7.01556L7.05591 8.47463C7.07609 8.25337 7.10299 8.05223 7.12317 8.03882C7.17025 7.99188 8.70366 7.54266 9.28878 7.40856C9.58471 7.34151 10.0286 7.28117 10.2774 7.28117C10.6944 7.27446 10.7348 7.28787 10.8895 7.47561Z" fill="white"/>
</svg>
